<?xml version="1.0" encoding="UTF-8"?>
<svg id="Layer_1" data-name="Layer 1" xmlns="http://www.w3.org/2000/svg" xmlns:xlink="http://www.w3.org/1999/xlink" viewBox="0 0 1830.06 1080">
  <defs>
    <style>
      .cls-1 {
        letter-spacing: -.01em;
      }

      .cls-2 {
        letter-spacing: -.03em;
      }

      .cls-3 {
        stroke-width: 17.27px;
      }

      .cls-3, .cls-4, .cls-5 {
        fill: none;
        stroke-miterlimit: 10;
      }

      .cls-3, .cls-5 {
        stroke: #fcfcfc;
      }

      .cls-6 {
        letter-spacing: -.01em;
      }

      .cls-7 {
        letter-spacing: 0em;
      }

      .cls-8, .cls-9, .cls-10 {
        fill: #ebf2f1;
      }

      .cls-11 {
        letter-spacing: 0em;
      }

      .cls-4 {
        stroke: #3d3d3d;
      }

      .cls-12 {
        letter-spacing: -.01em;
      }

      .cls-13 {
        fill: #7c51f4;
      }

      .cls-13, .cls-14, .cls-10 {
        stroke-width: 0px;
      }

      .cls-15 {
        letter-spacing: 0em;
      }

      .cls-16 {
        fill: #fff;
        font-family: ProjektBlackbird-Regular, 'Projekt Blackbird';
        font-size: 146.58px;
      }

      .cls-17 {
        letter-spacing: -.01em;
      }

      .cls-9 {
        font-family: PPMori-Regular, 'PP Mori';
        font-size: 36px;
      }

      .cls-18 {
        letter-spacing: 0em;
      }

      .cls-5 {
        stroke-width: 14.55px;
      }

      .cls-14 {
        fill: #3d3d3d;
      }

      .cls-19 {
        clip-path: url(#clippath);
      }

      .cls-20 {
        letter-spacing: -.02em;
      }

      .cls-21 {
        letter-spacing: -.04em;
      }

      .cls-22 {
        letter-spacing: -.02em;
      }
    </style>
    <clipPath id="clippath">
      <rect class="cls-10" x="1279.38" y="-1250.61" width="1920" height="1080"/>
    </clipPath>
  </defs>
  <g>
    <rect class="cls-8" x="1279.38" y="-1250.61" width="1920" height="1080"/>
    <g class="cls-19">
      <g>
        <rect class="cls-4" x="526.36" y="-403.4" width="1920" height="1080"/>
        <line class="cls-4" x1="526.36" y1="460.6" x2="2446.36" y2="460.6"/>
        <line class="cls-4" x1="526.36" y1="244.6" x2="2446.36" y2="244.6"/>
        <line class="cls-4" x1="526.36" y1="28.6" x2="2446.36" y2="28.6"/>
        <line class="cls-4" x1="1726.36" y1="-403.4" x2="1726.36" y2="676.6"/>
        <line class="cls-4" x1="1486.36" y1="-403.4" x2="1486.36" y2="676.6"/>
        <line class="cls-4" x1="1246.36" y1="-403.4" x2="1246.36" y2="676.6"/>
        <line class="cls-4" x1="1006.36" y1="-403.4" x2="1006.36" y2="676.6"/>
        <line class="cls-4" x1="766.36" y1="-403.4" x2="766.36" y2="676.6"/>
      </g>
    </g>
  </g>
  <rect class="cls-14" width="1830.23" height="1080"/>
  <g>
    <g>
      <path class="cls-5" d="M598.71,481.64c.2.59.4,1.18.59,1.77,11.92,37.3-8.03,77.51-45.24,90.44-37.2,12.93-77.8-6.25-91.58-42.9-.22-.58-.43-1.17-.64-1.75s-.4-1.19-.59-1.77c-1.12-3.49-1.95-7.02-2.53-10.55-.09-.59-.18-1.17-.26-1.76-.05-.33-.09-.67-.13-1.01-.18-1.42-.31-2.84-.4-4.26-.03-.58-.06-1.15-.08-1.72-.1-2.36-.07-4.72.07-7.04.02-.37.04-.72.08-1.07.01-.31.04-.64.07-.96.04-.48.09-.94.14-1.4.06-.54.12-1.07.19-1.6,0-.07.02-.12.02-.18.07-.55.15-1.11.24-1.65.07-.46.14-.91.23-1.38.06-.33.12-.66.18-.99.1-.53.21-1.06.32-1.59.14-.7.31-1.39.48-2.08.09-.41.19-.82.31-1.23.19-.72.39-1.44.6-2.16.1-.34.2-.66.3-.99.23-.76.48-1.5.74-2.24.14-.41.29-.84.45-1.25.15-.43.32-.85.48-1.27.1-.28.21-.56.33-.84.14-.35.28-.69.43-1.03.29-.68.59-1.36.89-2.03.2-.45.41-.88.62-1.32.25-.51.5-1.02.76-1.52l.03-.06c.27-.51.53-1.01.8-1.51.28-.51.56-1.01.85-1.52.29-.5.58-1,.88-1.49.31-.5.61-.99.93-1.48.19-.31.39-.61.6-.91.2-.3.4-.61.61-.91.24-.36.49-.72.75-1.07.31-.45.65-.9.97-1.34.04-.06.07-.11.12-.16.23-.31.46-.61.7-.91.83-1.08,1.69-2.13,2.59-3.16.27-.32.55-.62.82-.93.5-.55,1-1.1,1.52-1.64.33-.34.67-.68,1-1.02.08-.09.17-.17.26-.25.39-.39.78-.77,1.18-1.14.27-.26.54-.51.81-.76.23-.22.47-.44.71-.64,1.24-1.12,2.51-2.18,3.84-3.21.46-.37.94-.72,1.42-1.08.31-.23.62-.46.94-.68.25-.18.5-.36.76-.54.4-.28.81-.56,1.23-.83.5-.33.99-.66,1.5-.97.42-.26.83-.51,1.25-.76,1.17-.71,2.38-1.39,3.6-2.03.89-.47,1.8-.92,2.71-1.35.72-.34,1.44-.67,2.17-.99,1.03-.44,2.08-.87,3.16-1.28.65-.25,1.3-.49,1.96-.72,37.8-13.13,79.08,6.85,92.21,44.65Z"/>
      <path class="cls-13" d="M569.78,525.55c3.08-1.07,5.84-2.62,8.26-4.55-4.7,14.41-15.85,26.53-31.27,31.88-26.21,9.11-54.84-4.76-63.95-30.97-9.11-26.21,4.76-54.84,30.97-63.95,19.67-6.83,40.7-.74,53.82,13.81-5.2-1.35-10.83-1.24-16.28.65-14.67,5.1-22.43,21.12-17.33,35.79,5.1,14.66,21.12,22.43,35.79,17.33Z"/>
      <path class="cls-3" d="M428.81,490.99c5.25-36.77,30.36-69.4,67.87-82.43,12.21-4.24,24.67-6.04,36.86-5.66"/>
      <path class="cls-3" d="M632.35,515.76c-3.93,38.41-29.49,72.96-68.37,86.47-35.16,12.22-72.44,4.18-99.15-17.96"/>
    </g>
    <text class="cls-16" transform="translate(676.12 505.42)"><tspan x="0" y="0">SE</tspan><tspan class="cls-2" x="159.33" y="0">E</tspan><tspan class="cls-7" x="235.56" y="0">S</tspan><tspan class="cls-11" x="314.12" y="0">H</tspan><tspan class="cls-20" x="392.4" y="0">A</tspan><tspan x="480.05" y="0">RP</tspan></text>
    <text class="cls-9" transform="translate(681.68 568.02)"><tspan class="cls-21" x="0" y="0">A</tspan><tspan class="cls-17" x="24.41" y="0">tt</tspan><tspan x="48.13" y="0">endance marking </tspan><tspan class="cls-15" x="349.74" y="0">s</tspan><tspan class="cls-18" x="367.41" y="0">y</tspan><tspan class="cls-1" x="387.17" y="0">s</tspan><tspan class="cls-6" x="404.56" y="0">t</tspan><tspan x="417.88" y="0">em via came</tspan><tspan class="cls-12" x="633.38" y="0">r</tspan><tspan x="646.37" y="0">a </tspan><tspan x="0" y="43.2">using </tspan><tspan class="cls-15" x="97.49" y="43.2">f</tspan><tspan x="111.81" y="43.2">acial </tspan><tspan class="cls-22" x="198.82" y="43.2">r</tspan><tspan x="211.39" y="43.2">ecognition</tspan></text>
  </g>
</svg>