<?xml version="1.0" encoding="UTF-8"?>
<svg id="Layer_1" data-name="Layer 1" xmlns="http://www.w3.org/2000/svg" xmlns:xlink="http://www.w3.org/1999/xlink" viewBox="0 0 1920 1080">
  <defs>
    <style>
      .cls-1 {
        stroke-width: 13.74px;
      }

      .cls-1, .cls-2 {
        stroke: #2d2d2d;
      }

      .cls-1, .cls-2, .cls-3 {
        fill: none;
        stroke-miterlimit: 10;
      }

      .cls-2 {
        stroke-width: 11.58px;
      }

      .cls-4, .cls-5, .cls-6 {
        fill: #3d3d3d;
      }

      .cls-5 {
        letter-spacing: -.02em;
      }

      .cls-7, .cls-8 {
        fill: #ebf2f1;
      }

      .cls-3 {
        stroke: #3d3d3d;
      }

      .cls-9 {
        letter-spacing: -.03em;
      }

      .cls-9, .cls-10, .cls-11 {
        fill: #8556ed;
      }

      .cls-12 {
        clip-path: url(#clippath-1);
      }

      .cls-13 {
        clip-path: url(#clippath);
      }

      .cls-11, .cls-8 {
        stroke-width: 0px;
      }

      .cls-6 {
        letter-spacing: 0em;
      }

      .cls-14 {
        font-family: ProjektBlackbird-Regular, 'Projekt Blackbird';
        font-size: 137.5px;
      }
    </style>
    <clipPath id="clippath">
      <rect class="cls-8" x="1967.12" width="1920" height="1080"/>
    </clipPath>
    <clipPath id="clippath-1">
      <rect class="cls-8" x="-.99" width="1920" height="1080"/>
    </clipPath>
  </defs>
  <g>
    <rect class="cls-7" x="1967.12" width="1920" height="1080"/>
    <g class="cls-13">
      <g>
        <rect class="cls-3" x="1214.09" y="847.21" width="1920" height="1080"/>
        <line class="cls-3" x1="1214.09" y1="1063.21" x2="3134.09" y2="1063.21"/>
        <line class="cls-3" x1="1694.09" y1="847.21" x2="1694.09" y2="1927.21"/>
        <line class="cls-3" x1="1454.09" y1="847.21" x2="1454.09" y2="1927.21"/>
      </g>
    </g>
  </g>
  <g>
    <rect class="cls-7" x="-.99" width="1920" height="1080"/>
    <g class="cls-12">
      <path class="cls-3" d="M140.12-92.89h545.11V198.66c-56.59,56.59-88.31,88.31-144.9,144.9h-132.17c0-148.04-120.01-268.04-268.04-268.04V-92.89Z"/>
      <g>
        <rect class="cls-3" x="1393.41" width="1920" height="1080"/>
        <line class="cls-3" x1="1393.41" y1="864" x2="3313.41" y2="864"/>
        <line class="cls-3" x1="1393.41" y1="648" x2="3313.41" y2="648"/>
        <line class="cls-3" x1="1393.41" y1="432" x2="3313.41" y2="432"/>
        <line class="cls-3" x1="1393.41" y1="216" x2="3313.41" y2="216"/>
        <line class="cls-3" x1="1873.41" x2="1873.41" y2="1080"/>
        <line class="cls-3" x1="1633.41" x2="1633.41" y2="1080"/>
      </g>
      <g>
        <rect class="cls-3" x="-754.02" y="847.21" width="1920" height="1080"/>
        <line class="cls-3" x1="-754.02" y1="1063.21" x2="1165.98" y2="1063.21"/>
        <line class="cls-3" x1="925.98" y1="847.21" x2="925.98" y2="1927.21"/>
        <line class="cls-3" x1="685.98" y1="847.21" x2="685.98" y2="1927.21"/>
        <line class="cls-3" x1="445.98" y1="847.21" x2="445.98" y2="1927.21"/>
        <line class="cls-3" x1="205.98" y1="847.21" x2="205.98" y2="1927.21"/>
      </g>
    </g>
  </g>
  <text class="cls-14" transform="translate(659.63 668.03)"><tspan class="cls-10" x="0" y="0">SE</tspan><tspan class="cls-9" x="149.46" y="0">E</tspan><tspan class="cls-4" x="220.97" y="0">S</tspan><tspan class="cls-6" x="294.67" y="0">H</tspan><tspan class="cls-5" x="368.1" y="0">A</tspan><tspan class="cls-4" x="450.32" y="0">RP</tspan></text>
  <g>
    <path class="cls-2" d="M1014.45,406.21c.16.47.32.94.47,1.41,9.48,29.68-6.39,61.68-36,71.97-29.6,10.29-61.9-4.97-72.87-34.14-.18-.46-.34-.93-.51-1.4s-.32-.94-.47-1.41c-.89-2.78-1.55-5.59-2.01-8.39-.07-.47-.14-.93-.2-1.4-.04-.26-.07-.54-.1-.8-.15-1.13-.25-2.26-.32-3.39-.03-.46-.05-.91-.06-1.37-.08-1.88-.05-3.75.06-5.6.02-.29.03-.57.06-.85.01-.25.03-.51.06-.76.03-.38.07-.75.11-1.12.05-.43.09-.85.15-1.27,0-.05.01-.09.02-.14.06-.44.12-.88.19-1.32.05-.36.11-.73.18-1.1.05-.26.09-.53.15-.78.08-.42.16-.84.26-1.26.11-.56.25-1.1.38-1.65.07-.33.15-.65.24-.98.15-.58.31-1.15.48-1.72.08-.27.16-.53.24-.79.19-.6.38-1.2.59-1.78.11-.33.23-.66.36-.99.12-.34.25-.68.38-1.01.08-.22.17-.45.26-.67.11-.28.22-.55.34-.82.23-.54.47-1.08.71-1.62.16-.36.33-.7.5-1.05.2-.4.4-.81.6-1.21l.02-.04c.21-.4.42-.81.64-1.2.23-.41.45-.81.68-1.21.23-.4.46-.8.7-1.19.24-.4.48-.79.74-1.18.15-.25.31-.49.47-.73.16-.24.32-.48.48-.72.19-.28.39-.57.59-.85.25-.36.51-.72.78-1.06.03-.05.06-.09.1-.13.18-.24.37-.49.56-.72.66-.86,1.35-1.7,2.06-2.51.22-.26.43-.5.65-.74.39-.44.8-.88,1.21-1.3.26-.27.53-.54.79-.81.07-.07.14-.14.21-.2.31-.31.62-.61.94-.91.21-.21.43-.4.64-.6.19-.18.37-.35.56-.51.99-.89,2-1.74,3.06-2.55.37-.29.75-.58,1.13-.86.24-.18.49-.37.75-.54.2-.14.4-.29.61-.43.32-.22.64-.45.98-.66.39-.26.79-.52,1.2-.78.33-.21.66-.41.99-.61.93-.56,1.89-1.11,2.87-1.62.71-.37,1.43-.73,2.16-1.07.57-.27,1.15-.53,1.72-.79.82-.35,1.66-.7,2.51-1.02.51-.2,1.03-.39,1.56-.57,30.08-10.45,62.92,5.45,73.38,35.53Z"/>
    <path class="cls-11" d="M991.44,441.15c2.45-.85,4.65-2.09,6.57-3.62-3.74,11.46-12.61,21.11-24.88,25.37-20.86,7.25-43.64-3.78-50.89-24.64s3.78-43.64,24.64-50.89c15.65-5.44,32.39-.59,42.83,10.99-4.14-1.07-8.62-.99-12.96.52-11.68,4.06-17.85,16.81-13.79,28.48,4.05,11.67,16.8,17.85,28.48,13.79Z"/>
    <path class="cls-1" d="M879.26,413.66c4.18-29.26,24.16-55.22,54.01-65.59,9.71-3.38,19.63-4.81,29.33-4.5"/>
    <path class="cls-1" d="M1041.22,433.36c-3.12,30.56-23.47,58.06-54.4,68.81-27.97,9.72-57.65,3.32-78.9-14.29"/>
  </g>
</svg>